<svg width="32" height="28" viewBox="0 0 32 28" fill="none" xmlns="http://www.w3.org/2000/svg">
<g clip-path="url(#clip0_47_805)">
<path d="M3.99902 27.832H26.7041C29.1943 27.832 30.7031 26.1035 30.7031 23.8623C30.7031 23.1738 30.498 22.4561 30.1318 21.8115L18.7646 2.00684C18.0029 0.673828 16.6992 0 15.3516 0C14.0039 0 12.6855 0.673828 11.9385 2.00684L0.571289 21.8115C0.175781 22.4707 0 23.1738 0 23.8623C0 26.1035 1.50879 27.832 3.99902 27.832Z" fill="#FFD60A"/>
<path d="M15.3662 18.0469C14.6045 18.0469 14.1797 17.6074 14.165 16.8311L13.9746 8.8623C13.96 8.08594 14.5312 7.5293 15.3516 7.5293C16.1426 7.5293 16.7578 8.10059 16.7432 8.87695L16.5234 16.8311C16.5088 17.6221 16.084 18.0469 15.3662 18.0469ZM15.3662 22.9541C14.4873 22.9541 13.7256 22.251 13.7256 21.3867C13.7256 20.5078 14.4727 19.8047 15.3662 19.8047C16.2451 19.8047 16.9922 20.4932 16.9922 21.3867C16.9922 22.2656 16.2305 22.9541 15.3662 22.9541Z" fill="white"/>
</g>
<defs>
<clipPath id="clip0_47_805">
<rect width="31.0693" height="27.9932" fill="white"/>
</clipPath>
</defs>
</svg>
