<svg width="11" height="10" viewBox="0 0 11 10" fill="none" xmlns="http://www.w3.org/2000/svg">
<path d="M0.897341 9.84456C0.79948 9.94246 0.667073 10 0.523151 10C0.223791 10 -0.00651567 9.77547 -0.00651567 9.47611C-0.00651567 9.33219 0.0568385 9.19978 0.148922 9.10192L4.65095 4.69201V5.30803L0.148922 0.903857C0.0568385 0.805988 -0.00651567 0.667819 -0.00651567 0.529651C-0.00651567 0.230283 0.223791 0 0.523151 0C0.667073 0 0.793742 0.0575705 0.897341 0.155441L5.45695 4.61714C5.56632 4.70927 5.62964 4.85319 5.62964 5.00289C5.62964 5.14681 5.56632 5.27922 5.45695 5.38859L0.897341 9.84456Z" fill="#999999" fill-opacity="0.85"/>
<path d="M6.03247 9.84456C5.93461 9.94246 5.80794 10 5.65824 10C5.35888 10 5.13435 9.77547 5.13435 9.47611C5.13435 9.33219 5.19193 9.19978 5.28405 9.10192L9.79183 4.69201V5.30803L5.28405 0.903857C5.19193 0.805988 5.13435 0.667819 5.13435 0.529651C5.13435 0.230283 5.35888 0 5.65824 0C5.80794 0 5.93461 0.0575705 6.03247 0.155441L10.5921 4.61714C10.7014 4.70927 10.7648 4.85319 10.7648 5.00289C10.7648 5.14681 10.7072 5.27922 10.5978 5.38859L6.03247 9.84456Z" fill="#999999" fill-opacity="0.85"/>
</svg>
