<svg width="29" height="29" viewBox="0 0 29 29" fill="none" xmlns="http://www.w3.org/2000/svg">
<path d="M0 11.6895C0 18.1348 5.24414 23.3789 11.6895 23.3789C14.2383 23.3789 16.5674 22.5586 18.4863 21.1816L25.6934 28.4033C26.0303 28.7402 26.4697 28.9014 26.9385 28.9014C27.9346 28.9014 28.623 28.1543 28.623 27.1729C28.623 26.7041 28.4473 26.2793 28.1396 25.9717L20.9766 18.7646C22.4854 16.8018 23.3789 14.3555 23.3789 11.6895C23.3789 5.24414 18.1348 0 11.6895 0C5.24414 0 0 5.24414 0 11.6895ZM2.50488 11.6895C2.50488 6.62109 6.62109 2.50488 11.6895 2.50488C16.7578 2.50488 20.874 6.62109 20.874 11.6895C20.874 16.7578 16.7578 20.874 11.6895 20.874C6.62109 20.874 2.50488 16.7578 2.50488 11.6895Z" fill="black"/>
</svg>
