<svg width="11" height="10" viewBox="0 0 11 10" fill="none" xmlns="http://www.w3.org/2000/svg">
<g clip-path="url(#clip0_44_785)">
<path d="M9.86199 9.83324C9.95973 9.93103 10.092 9.9885 10.2357 9.9885C10.5348 9.9885 10.7648 9.76423 10.7648 9.46521C10.7648 9.32145 10.7015 9.1892 10.6095 9.09145L6.11269 4.68662V5.30192L10.6095 0.902817C10.7015 0.805061 10.7648 0.667051 10.7648 0.529042C10.7648 0.230018 10.5348 0 10.2357 0C10.092 0 9.96547 0.0575042 9.86199 0.155262L5.30762 4.61183C5.19837 4.70385 5.13513 4.84761 5.13513 4.99713C5.13513 5.14089 5.19837 5.27315 5.30762 5.3824L9.86199 9.83324Z" fill="#999999" fill-opacity="0.85"/>
<path d="M4.72685 9.83324C4.8246 9.93103 4.95113 9.9885 5.10065 9.9885C5.39967 9.9885 5.62394 9.76423 5.62394 9.46521C5.62394 9.32145 5.56643 9.1892 5.47441 9.09145L0.971826 4.68662V5.30192L5.47441 0.902817C5.56643 0.805061 5.62394 0.667051 5.62394 0.529042C5.62394 0.230018 5.39967 0 5.10065 0C4.95113 0 4.8246 0.0575042 4.72685 0.155262L0.172513 4.61183C0.0632549 4.70385 0 4.84761 0 4.99713C0 5.14089 0.0575042 5.27315 0.166763 5.3824L4.72685 9.83324Z" fill="#999999" fill-opacity="0.85"/>
</g>
<defs>
<clipPath id="clip0_44_785">
<rect width="10.9086" height="10" fill="white"/>
</clipPath>
</defs>
</svg>
