<svg width="30" height="22" viewBox="0 0 30 22" fill="none" xmlns="http://www.w3.org/2000/svg">
<g clip-path="url(#clip0_18_13)">
<path d="M8.32031 20.7568H28.3301C28.9893 20.7568 29.5166 20.2441 29.5166 19.585C29.5166 18.9111 28.9893 18.3984 28.3301 18.3984H8.32031C7.64648 18.3984 7.13379 18.9111 7.13379 19.585C7.13379 20.2441 7.64648 20.7568 8.32031 20.7568Z" fill="black"/>
<path d="M1.8457 21.4307C2.87109 21.4307 3.69141 20.5957 3.69141 19.585C3.69141 18.5596 2.87109 17.7393 1.8457 17.7393C0.820312 17.7393 0 18.5596 0 19.585C0 20.5957 0.820312 21.4307 1.8457 21.4307Z" fill="black"/>
<path d="M8.32031 11.9092H28.3301C28.9893 11.9092 29.5166 11.3818 29.5166 10.7227C29.5166 10.0635 28.9893 9.55078 28.3301 9.55078H8.32031C7.64648 9.55078 7.13379 10.0635 7.13379 10.7227C7.13379 11.3818 7.64648 11.9092 8.32031 11.9092Z" fill="black"/>
<path d="M1.8457 12.5684C2.87109 12.5684 3.69141 11.748 3.69141 10.7227C3.69141 9.69727 2.87109 8.87695 1.8457 8.87695C0.820312 8.87695 0 9.69727 0 10.7227C0 11.748 0.820312 12.5684 1.8457 12.5684Z" fill="black"/>
<path d="M8.32031 3.04688H28.3301C28.9893 3.04688 29.5166 2.53418 29.5166 1.875C29.5166 1.20117 28.9893 0.688477 28.3301 0.688477H8.32031C7.64648 0.688477 7.13379 1.20117 7.13379 1.875C7.13379 2.53418 7.64648 3.04688 8.32031 3.04688Z" fill="black"/>
<path d="M1.8457 3.70605C2.87109 3.70605 3.69141 2.88574 3.69141 1.875C3.69141 0.849609 2.87109 0.0292969 1.8457 0.0292969C0.820312 0.0292969 0 0.849609 0 1.875C0 2.88574 0.820312 3.70605 1.8457 3.70605Z" fill="black"/>
</g>
<defs>
<clipPath id="clip0_18_13">
<rect width="29.8828" height="21.4307" fill="white"/>
</clipPath>
</defs>
</svg>
