<svg width="20" height="21" viewBox="0 0 20 21" fill="none" xmlns="http://www.w3.org/2000/svg">
<path d="M0 8.49369C0 13.1769 3.66428 16.9873 8.16791 16.9873C9.94885 16.9873 11.5763 16.3913 12.9171 15.3907L17.953 20.6381C18.1884 20.8829 18.4954 21 18.823 21C19.519 21 20 20.4572 20 19.7441C20 19.4034 19.8772 19.0948 19.6622 18.8713L14.6572 13.6345C15.7114 12.2083 16.3357 10.4308 16.3357 8.49369C16.3357 3.81044 12.6715 0 8.16791 0C3.66428 0 0 3.81044 0 8.49369ZM1.75026 8.49369C1.75026 4.81094 4.62641 1.82007 8.16791 1.82007C11.7093 1.82007 14.5855 4.81094 14.5855 8.49369C14.5855 12.1764 11.7093 15.1672 8.16791 15.1672C4.62641 15.1672 1.75026 12.1764 1.75026 8.49369Z" fill="#007AFF"/>
</svg>
