<svg width="6" height="10" viewBox="0 0 6 10" fill="none" xmlns="http://www.w3.org/2000/svg">
<path d="M6 4.99998C6 5.14402 5.94816 5.27073 5.83871 5.38017L1.27073 9.84447C1.17281 9.94817 1.04607 10 0.896322 10C0.59679 10 0.366351 9.77534 0.366351 9.47581C0.366351 9.32602 0.429741 9.19932 0.521878 9.10137L4.71544 4.99998L0.521878 0.898619C0.429741 0.80069 0.366351 0.668203 0.366351 0.524194C0.366351 0.224654 0.59679 0 0.896322 0C1.04607 0 1.17281 0.0518433 1.27073 0.149769L5.83871 4.61979C5.94816 4.72349 6 4.85598 6 4.99998Z" fill="#999999"/>
</svg>
