<svg width="6" height="11" viewBox="0 0 6 11" fill="none" xmlns="http://www.w3.org/2000/svg">
<path d="M0 5.24998C0 5.39402 0.0518433 5.52073 0.16129 5.63017L4.72927 10.0945C4.82719 10.1982 4.95393 10.25 5.10368 10.25C5.40321 10.25 5.63365 10.0253 5.63365 9.72581C5.63365 9.57602 5.57026 9.44932 5.47812 9.35137L1.28456 5.24998L5.47812 1.14862C5.57026 1.05069 5.63365 0.918203 5.63365 0.774194C5.63365 0.474654 5.40321 0.25 5.10368 0.25C4.95393 0.25 4.82719 0.301843 4.72927 0.399769L0.16129 4.86979C0.0518433 4.97349 0 5.10598 0 5.24998Z" fill="#999999"/>
</svg>
