<svg width="24" height="24" viewBox="0 0 24 24" fill="none" xmlns="http://www.w3.org/2000/svg">
<path d="M0.379048 22.8644C0.891744 23.3624 1.74135 23.3624 2.2394 22.8644L11.6144 13.4894L20.9894 22.8644C21.4874 23.3624 22.3517 23.3771 22.8498 22.8644C23.3478 22.3517 23.3478 21.5167 22.8498 21.0187L13.4748 11.629L22.8498 2.25405C23.3478 1.756 23.3624 0.906392 22.8498 0.408345C22.3371 -0.104351 21.4874 -0.104351 20.9894 0.408345L11.6144 9.78335L2.2394 0.408345C1.74135 -0.104351 0.877095 -0.118999 0.379048 0.408345C-0.118999 0.92104 -0.118999 1.756 0.379048 2.25405L9.75405 11.629L0.379048 21.0187C-0.118999 21.5167 -0.133647 22.3664 0.379048 22.8644Z" fill="black" fill-opacity="0.85"/>
</svg>
